<mxfile host="app.diagrams.net" agent="Mozilla/5.0 (Windows NT 10.0; Win64; x64; rv:131.0) Gecko/20100101 Firefox/131.0" version="24.7.17">
  <diagram name="Page-1" id="UA833VismV2gNBxGES1q">
    <mxGraphModel dx="880" dy="434" grid="1" gridSize="10" guides="1" tooltips="1" connect="1" arrows="1" fold="1" page="1" pageScale="1" pageWidth="827" pageHeight="1169" math="0" shadow="0">
      <root>
        <mxCell id="0" />
        <mxCell id="1" parent="0" />
        <mxCell id="Kwn6_9xQQQKUsK2mqzXM-10" value="" style="rounded=0;whiteSpace=wrap;html=1;fillColor=none;strokeColor=none;strokeWidth=1;" vertex="1" parent="1">
          <mxGeometry x="90" y="215" width="50" height="100" as="geometry" />
        </mxCell>
        <mxCell id="Kwn6_9xQQQKUsK2mqzXM-13" value="" style="rounded=0;whiteSpace=wrap;html=1;fillColor=none;strokeColor=none;" vertex="1" parent="1">
          <mxGeometry x="280" y="200" width="210" height="130" as="geometry" />
        </mxCell>
        <mxCell id="Kwn6_9xQQQKUsK2mqzXM-1" value="&lt;font style=&quot;font-size: 13px;&quot;&gt;&lt;b&gt;Agent&lt;/b&gt;&lt;/font&gt;" style="shape=umlActor;verticalLabelPosition=bottom;verticalAlign=top;html=1;outlineConnect=0;strokeWidth=2;fillColor=default;gradientColor=none;" vertex="1" parent="1">
          <mxGeometry x="100" y="230" width="30" height="60" as="geometry" />
        </mxCell>
        <mxCell id="Kwn6_9xQQQKUsK2mqzXM-2" value="&lt;font style=&quot;font-size: 15px;&quot;&gt;&lt;b&gt;Environment&lt;/b&gt;&lt;/font&gt;" style="ellipse;shape=cloud;whiteSpace=wrap;html=1;strokeWidth=2;" vertex="1" parent="1">
          <mxGeometry x="270" y="200" width="220" height="130" as="geometry" />
        </mxCell>
        <mxCell id="Kwn6_9xQQQKUsK2mqzXM-14" style="rounded=0;orthogonalLoop=1;jettySize=auto;html=1;entryX=0.5;entryY=0;entryDx=0;entryDy=0;edgeStyle=orthogonalEdgeStyle;curved=1;exitX=0.5;exitY=0;exitDx=0;exitDy=0;strokeWidth=2;" edge="1" parent="1" source="Kwn6_9xQQQKUsK2mqzXM-10" target="Kwn6_9xQQQKUsK2mqzXM-13">
          <mxGeometry relative="1" as="geometry">
            <mxPoint x="150" y="150" as="sourcePoint" />
            <Array as="points">
              <mxPoint x="115" y="160" />
              <mxPoint x="385" y="160" />
            </Array>
          </mxGeometry>
        </mxCell>
        <mxCell id="Kwn6_9xQQQKUsK2mqzXM-16" value="Action A&lt;sub style=&quot;font-size: 13px;&quot;&gt;t&lt;/sub&gt;" style="edgeLabel;html=1;align=center;verticalAlign=middle;resizable=0;points=[];fontStyle=1;fontSize=13;" vertex="1" connectable="0" parent="Kwn6_9xQQQKUsK2mqzXM-14">
          <mxGeometry x="0.0519" y="3" relative="1" as="geometry">
            <mxPoint x="-5" y="-9" as="offset" />
          </mxGeometry>
        </mxCell>
        <mxCell id="Kwn6_9xQQQKUsK2mqzXM-15" style="edgeStyle=orthogonalEdgeStyle;rounded=0;orthogonalLoop=1;jettySize=auto;html=1;exitX=0.5;exitY=1;exitDx=0;exitDy=0;entryX=0.25;entryY=1;entryDx=0;entryDy=0;strokeColor=default;curved=1;strokeWidth=2;" edge="1" parent="1" source="Kwn6_9xQQQKUsK2mqzXM-13" target="Kwn6_9xQQQKUsK2mqzXM-10">
          <mxGeometry relative="1" as="geometry">
            <Array as="points">
              <mxPoint x="385" y="380" />
              <mxPoint x="103" y="380" />
            </Array>
          </mxGeometry>
        </mxCell>
        <mxCell id="Kwn6_9xQQQKUsK2mqzXM-17" value="Reward R&lt;sub style=&quot;font-size: 13px;&quot;&gt;t+1&lt;/sub&gt;" style="edgeLabel;html=1;align=center;verticalAlign=middle;resizable=0;points=[];fontStyle=1;fontSize=13;" vertex="1" connectable="0" parent="Kwn6_9xQQQKUsK2mqzXM-15">
          <mxGeometry x="0.0182" relative="1" as="geometry">
            <mxPoint x="8" y="11" as="offset" />
          </mxGeometry>
        </mxCell>
        <mxCell id="Kwn6_9xQQQKUsK2mqzXM-18" style="edgeStyle=orthogonalEdgeStyle;rounded=0;orthogonalLoop=1;jettySize=auto;html=1;exitX=0.25;exitY=1;exitDx=0;exitDy=0;entryX=0.75;entryY=1;entryDx=0;entryDy=0;curved=1;strokeWidth=2;" edge="1" parent="1" source="Kwn6_9xQQQKUsK2mqzXM-13" target="Kwn6_9xQQQKUsK2mqzXM-10">
          <mxGeometry relative="1" as="geometry" />
        </mxCell>
        <mxCell id="Kwn6_9xQQQKUsK2mqzXM-19" value="Observation O&lt;sub style=&quot;font-size: 13px;&quot;&gt;t+1&lt;/sub&gt;" style="edgeLabel;html=1;align=center;verticalAlign=middle;resizable=0;points=[];fontStyle=1;fontSize=13;" vertex="1" connectable="0" parent="Kwn6_9xQQQKUsK2mqzXM-18">
          <mxGeometry x="-0.2808" y="-2" relative="1" as="geometry">
            <mxPoint x="-18" y="12" as="offset" />
          </mxGeometry>
        </mxCell>
      </root>
    </mxGraphModel>
  </diagram>
</mxfile>
